<svg xmlns="http://www.w3.org/2000/svg" viewBox="0 0 128 128"><defs><style>.cls-1{isolation:isolate;}.cls-2{mix-blend-mode:multiply;}.cls-3{fill:#4aa82f;}.cls-4{fill:#5ecc44;}.cls-5{fill:#fff;}</style></defs><title>alligator</title><g class="cls-1"><g id="icons" class="cls-2"><path class="cls-3" d="M64,96c-10,0-16.9-5.55-20.87-13C47.48,95.46,55.74,105,64,105s16.52-9.54,20.87-22C80.9,90.45,74,96,64,96Z"/><path class="cls-4" d="M101,50c0-5.71-4.91-10.83-12.69-14.32A4,4,0,0,1,86,32a9.22,9.22,0,0,0-.38-2.62,9,9,0,0,0-17.31.25,2,2,0,0,1-1.92,1.42c-1.43,0-3.35,0-4.78,0a2,2,0,0,1-1.92-1.42,9,9,0,0,0-17.31-.25A9.22,9.22,0,0,0,42,32a4,4,0,0,1-2.31,3.66C31.91,39.17,27,44.29,27,50c0,4.9,3.62,9.37,9.56,12.74a7.87,7.87,0,0,1,3.88,5.94C41,73,41.88,79.45,43.13,83,47.1,90.45,54,96,64,96s16.9-5.55,20.87-13C86.12,79.45,87,73,87.55,68.68a7.87,7.87,0,0,1,3.89-5.94C97.38,59.37,101,54.9,101,50Z"/><circle class="cls-3" cx="60" cy="86" r="2"/><circle class="cls-3" cx="68" cy="86" r="2"/><circle cx="76" cy="35" r="4"/><circle cx="52" cy="35" r="4"/><path class="cls-5" d="M59.5,95.6,58,99.68a.5.5,0,0,1-.47.32h0a.48.48,0,0,1-.46-.34l-1.76-5.27A22.53,22.53,0,0,0,59.5,95.6Z"/><path class="cls-5" d="M72.73,94.39,71,99.66a.48.48,0,0,1-.46.34h0a.5.5,0,0,1-.47-.32L68.5,95.6A22.53,22.53,0,0,0,72.73,94.39Z"/></g></g></svg>